<?xml version="1.0" encoding="UTF-8" standalone="no"?>
<svg
   xmlns:dc="http://purl.org/dc/elements/1.1/"
   xmlns:cc="http://creativecommons.org/ns#"
   xmlns:rdf="http://www.w3.org/1999/02/22-rdf-syntax-ns#"
   xmlns:svg="http://www.w3.org/2000/svg"
   xmlns="http://www.w3.org/2000/svg"
   viewBox="0 0 612 792"
   id="svg2"
   height="792"
   width="612"
   version="1.1">
  <metadata
     id="metadata10">
    <rdf:RDF>
      <cc:Work
         rdf:about="">
        <dc:format>image/svg+xml</dc:format>
        <dc:type
           rdf:resource="http://purl.org/dc/dcmitype/StillImage" />
      </cc:Work>
    </rdf:RDF>
  </metadata>
  <defs
     id="defs8" />
  <path
     id="path4"
     style="fill:#1b1918;fill-rule:evenodd"
     d="m 328.0972,347.0998 0,-4.6463 0,-13.2715 13.2205,0 0,4.6466 -8.6726,0 0,8.6249 8.6726,0 0,4.6463 -8.6726,0 0,6.7156 8.6726,0 0,4.6468 -13.2205,0 0,-11.3624 z m -45.6608,-17.7778 17.6349,0 0,4.6466 -13.087,0 0,8.0776 13.087,0 0,16.276 -17.6349,0 0,-4.6463 13.0867,0 0,-6.9831 -8.5388,0 0,0.008 -4.5479,0 0,-0.008 0,-17.3708 z m 40.4397,-0.14 0,4.6466 -6.6654,0 0,24.6336 -4.5476,0 0,-24.6336 -6.6654,0 0,-4.6466 17.8784,0 z m -50.8935,0 4.5479,0 0,29.2802 -4.5479,0 0,-29.2802 z m -5.5151,60.9024 c 1.2296,1.0873 1.69,4.1204 1.1789,7.3349 -0.2676,1.6838 -0.8028,3.4177 -1.633,4.947 -1.0364,1.9086 -2.9914,2.9597 -3.1641,6.3119 -0.1771,3.4515 0.2327,8.0524 0.1718,10.9168 -0.1749,8.1763 5.5704,13.0057 21.638,3.4078 0.322,-0.1927 1.36,-0.9465 2.3834,-1.5281 6.0247,-3.4243 -1.9106,24.5355 -26.4104,25.8712 -15.9826,0.8714 -26.9833,-11.5883 -28.2249,-27.6511 -0.3246,-4.2052 5.6863,1.6413 9.6764,3.6641 5.6982,2.8885 10.0712,3.6618 11.9851,-0.0431 3.4591,-6.6952 -0.7341,-20.0529 4.2151,-26.6332 0.9335,-1.2413 2.7993,-3.4129 4.4751,-5.1392 1.3031,-1.3425 2.3414,-2.668 3.7086,-1.459 z m 84.8265,15.1497 c 8.6334,0 15.6342,7.001 15.6342,15.634 0,8.6334 -7.0008,15.6342 -15.6342,15.6342 -8.6332,0 -15.6343,-7.0008 -15.6343,-15.6342 0,-8.633 7.0011,-15.634 15.6343,-15.634 z m -9.7535,-4.7831 -1.7507,-4.8101 4.1012,-1.4931 1.7504,4.8093 c 1.1251,-0.2894 2.2844,-0.4935 3.4704,-0.6072 l 0,-5.1228 4.3643,0 0,5.1228 c 1.1857,0.1137 2.3453,0.3178 3.4704,0.6078 l 1.7507,-4.8099 4.1014,1.4931 -1.7512,4.8103 c 1.0655,0.51 2.084,1.1005 3.0492,1.7643 l 3.293,-3.924 3.3432,2.8052 -3.2944,3.9263 c 0.8229,0.8382 1.5803,1.739 2.2654,2.6966 l 4.4368,-2.5617 2.1821,3.7797 -4.4328,2.5594 c 0.4845,1.0624 0.8878,2.1685 1.2047,3.3112 l 5.0412,-0.889 0.758,4.2982 -5.0443,0.8895 c 0.0448,0.5808 0.0683,1.1687 0.0683,1.7612 0,0.593 -0.0241,1.1797 -0.0686,1.7614 l 5.0446,0.8895 -0.758,4.2982 -5.0417,-0.8889 c -0.3172,1.1426 -0.7206,2.2487 -1.2047,3.3108 l 4.4333,2.5597 -2.1821,3.7797 -4.4373,-2.5619 c -0.6849,0.9569 -1.4426,1.8586 -2.2652,2.6966 l 3.2947,3.9265 -3.3432,2.8052 -3.2933,-3.9249 c -0.9649,0.6636 -1.9839,1.2549 -3.0492,1.7649 l 1.7515,4.8109 -4.1014,1.4928 -1.7507,-4.8099 c -1.1248,0.29 -2.2844,0.4941 -3.4704,0.6078 l 0,5.1228 -4.3643,0 0,-5.1228 c -1.1857,-0.1137 -2.3453,-0.3178 -3.4704,-0.6072 l -1.7504,4.8093 -4.1012,-1.4928 1.751,-4.8106 c -1.0656,-0.51 -2.084,-1.1016 -3.0492,-1.7652 l -3.293,3.9249 -3.3432,-2.8052 3.2947,-3.9265 c -0.8221,-0.8377 -1.5803,-1.7399 -2.2652,-2.6966 l -4.4376,2.5619 -2.1821,-3.7797 4.4339,-2.5597 c -0.485,-1.0621 -0.8878,-2.1685 -1.2053,-3.3108 l -5.0417,0.8889 -0.758,-4.2982 5.0446,-0.8895 c -0.0448,-0.5817 -0.0683,-1.1684 -0.0683,-1.7614 0,-0.5925 0.0232,-1.1804 0.068,-1.7612 l -5.0443,-0.8895 0.758,-4.2982 5.0412,0.889 c 0.3169,-1.1427 0.7205,-2.2491 1.205,-3.3112 l -4.4331,-2.5594 2.1821,-3.7797 4.4368,2.5617 c 0.6851,-0.9576 1.4434,-1.8587 2.2657,-2.6966 l -3.2944,-3.9263 3.3432,-2.8052 3.2927,3.924 c 0.9652,-0.6638 1.9837,-1.2546 3.0492,-1.7645 z m -20.4829,-12.8274 c -4.5484,1.6872 -9.4665,2.6107 -14.6015,2.6107 -5.1344,0 -10.0522,-0.9226 -14.6004,-2.6104 7.5841,6.3065 12.9146,15.2314 14.6012,25.3865 1.6867,-10.1557 7.0166,-19.08 14.6007,-25.3868 z m -14.6948,-84.4027 c 23.0536,0 41.7484,18.6951 41.7484,41.7487 0,23.053 -18.6948,41.7484 -41.7484,41.7484 -23.053,0 -41.7483,-18.6954 -41.7483,-41.7484 0,-23.0536 18.6953,-41.7487 41.7483,-41.7487 z m -44.4707,75.78 c 23.053,0 41.7481,18.6951 41.7481,41.7484 0,23.0536 -18.6951,41.7484 -41.7481,41.7484 -23.0536,0 -41.7484,-18.6948 -41.7484,-41.7484 0,-23.0533 18.6948,-41.7484 41.7484,-41.7484 z m 88.9421,0 c 23.0533,0 41.7484,18.6951 41.7484,41.7484 0,23.0536 -18.6951,41.7484 -41.7484,41.7484 -23.0536,0 -41.7487,-18.6948 -41.7487,-41.7484 0,-23.0533 18.6951,-41.7484 41.7487,-41.7484 z m -39.3531,-77.563 c 50.0343,2.825 89.7471,44.0578 89.7471,94.4986 0,13.3917 -2.806,26.1312 -7.8539,37.679 1.3152,-4.1449 2.0248,-8.5507 2.0248,-13.1196 0,-24.3491 -20.1289,-44.0958 -44.9504,-44.0958 -5.493,0 -10.7561,0.9686 -15.6221,2.7391 9.9182,-8.0886 16.2355,-20.2818 16.2355,-33.9196 0,-22.5655 -17.2919,-41.1766 -39.581,-43.7817 z M 385.3236,448.31 c -17.0643,25.4851 -46.2223,42.2844 -79.3242,42.2844 -33.8142,0 -63.5136,-17.5309 -80.4109,-43.9427 8.1867,10.8794 21.3463,17.9399 36.1859,17.9399 22.2945,0 40.8013,-15.9338 44.3379,-36.8226 3.5362,20.8888 22.0419,36.8226 44.3364,36.8226 14.0717,0 26.6323,-6.3482 34.8749,-16.2816 z M 219.581,435.7281 c -5.6503,-12.098 -8.8092,-25.5778 -8.8092,-39.7916 0,-50.6126 39.9827,-91.9593 90.2576,-94.5306 -22.428,2.4778 -39.8684,21.1515 -39.8684,43.8137 0,13.6378 6.3173,25.8304 16.2346,33.9196 -4.8657,-1.7705 -10.1285,-2.7391 -15.6212,-2.7391 -24.8215,0 -44.9504,19.7467 -44.9504,44.0958 0,5.3541 0.9737,10.4848 2.757,15.2322 z M 306,261.3484 c 74.3547,0 134.6516,60.2969 134.6516,134.6516 0,74.3547 -60.2969,134.6516 -134.6516,134.6516 -74.3547,0 -134.6516,-60.2969 -134.6516,-134.6516 0,-74.3547 60.2969,-134.6516 134.6516,-134.6516 z m 0,18.43 c 64.1767,0 116.2216,52.0449 116.2216,116.2216 0,64.1767 -52.0449,116.2216 -116.2216,116.2216 -64.1767,0 -116.2216,-52.0449 -116.2216,-116.2216 0,-64.1767 52.0449,-116.2216 116.2216,-116.2216 z m -110.8395,123.7017 10.5721,-0.7393 0.1491,2.1342 -10.5721,0.7393 -0.1491,-2.1342 z m 0.4754,4.2261 10.5188,-1.2914 0.254,2.0667 -6.4953,5.1679 7.024,-0.8623 0.2423,1.974 -10.5191,1.2915 -0.2619,-2.1331 6.3394,-5.0817 -6.8598,0.8425 -0.2424,-1.9741 z m 11.7981,8.081 0.8796,3.8107 c 0.1981,0.8583 0.2843,1.5273 0.2562,2.0097 -0.038,0.6469 -0.2352,1.2396 -0.593,1.7754 -0.3543,0.5377 -0.8362,0.9958 -1.4428,1.3739 -0.6095,0.3765 -1.3961,0.6769 -2.365,0.9006 -0.8487,0.1959 -1.6064,0.2596 -2.2705,0.1899 -0.8096,-0.0842 -1.5027,-0.3115 -2.0778,-0.6854 -0.4368,-0.2787 -0.8235,-0.7036 -1.1628,-1.2736 -0.2525,-0.4252 -0.4668,-1.0242 -0.6451,-1.7961 l -0.9051,-3.9211 10.3263,-2.384 z m -1.2668,2.488 -6.8378,1.5786 0.3592,1.5557 c 0.1344,0.5816 0.2628,0.9952 0.39,1.2393 0.1619,0.3169 0.3685,0.5658 0.6223,0.7427 0.2537,0.1768 0.6295,0.28 1.1236,0.3152 0.4938,0.0331 1.1429,-0.0408 1.9412,-0.2251 0.7979,-0.1842 1.3921,-0.3974 1.7878,-0.6358 0.3951,-0.2404 0.6837,-0.5148 0.8637,-0.8221 0.1814,-0.3103 0.2684,-0.6698 0.2625,-1.0785 0,-0.3067 -0.1004,-0.8839 -0.2968,-1.7348 l -0.2157,-0.9352 z m -6.4392,10.1778 10.0791,-3.2749 0.6611,2.0348 -10.0792,3.2748 -0.661,-2.0347 z m 4.7991,12.9637 -0.8348,-2.1745 1.9167,-1.7268 -1.5182,-3.9552 -2.5614,0.0473 -0.8135,-2.1192 11.3734,0.0559 0.8107,2.1124 -8.3729,7.7601 z m 2.5015,-5.1809 3.1485,-2.7734 -4.1848,0.0734 1.0363,2.7 z m -1.9329,6.1503 9.4428,-4.8115 0.9453,1.8556 -4.3361,7.0778 6.3053,-3.2128 0.9029,1.7719 -9.4428,4.8113 -0.9757,-1.9148 4.2191,-6.9432 -6.158,3.1377 -0.9028,-1.772 z m 9.4422,10.6594 1.3626,1.5883 c -0.5034,0.5031 -0.7781,1.0054 -0.8263,1.5092 -0.0473,0.5003 0.1131,1.0173 0.4867,1.5511 0.3949,0.5638 0.8127,0.9065 1.2529,1.0233 0.4397,0.1202 0.819,0.0683 1.1381,-0.1554 0.2064,-0.1442 0.3376,-0.3268 0.3963,-0.5485 0.0621,-0.2211 0.04,-0.5193 -0.0657,-0.894 -0.0703,-0.2548 -0.273,-0.8116 -0.6024,-1.6688 -0.4252,-1.1026 -0.5998,-1.9624 -0.525,-2.5781 0.1035,-0.8677 0.4986,-1.542 1.186,-2.0233 0.4425,-0.3099 0.9428,-0.4731 1.5041,-0.493 0.5596,-0.0181 1.1064,0.1383 1.6381,0.4677 0.5313,0.3328 1.0299,0.8303 1.497,1.497 0.7642,1.0916 1.099,2.0772 1.0083,2.9631 -0.0941,0.8849 -0.5284,1.62 -1.3071,2.2073 l -1.3039,-1.6985 c 0.3946,-0.3878 0.6027,-0.7744 0.6242,-1.1568 0.0232,-0.3838 -0.1386,-0.8218 -0.4842,-1.315 -0.3566,-0.5094 -0.7398,-0.8371 -1.1508,-0.9771 -0.2639,-0.0924 -0.5088,-0.0598 -0.7334,0.0975 -0.206,0.1443 -0.3208,0.3546 -0.3449,0.6301 -0.0315,0.3504 0.1508,1.0239 0.5479,2.0172 0.3952,0.9943 0.6285,1.7708 0.7002,2.3292 0.0697,0.5595 3e-4,1.0842 -0.2109,1.5783 -0.2126,0.4924 -0.5928,0.9303 -1.1404,1.3139 -0.4975,0.3481 -1.0604,0.5377 -1.6869,0.5635 -0.6284,0.0275 -1.2251,-0.1361 -1.7892,-0.4944 -0.5661,-0.3568 -1.1129,-0.9139 -1.6404,-1.6673 -0.7688,-1.0979 -1.1061,-2.1178 -1.0109,-3.0609 0.0955,-0.9436 0.5891,-1.8133 1.48,-2.6056 z m 6.874,6.8103 c 0.8277,-0.6948 1.6245,-1.154 2.3936,-1.3774 0.5678,-0.1607 1.1511,-0.2216 1.7478,-0.178 0.595,0.0451 1.1322,0.1899 1.6098,0.4368 0.6409,0.3257 1.2351,0.819 1.7904,1.4806 1.0037,1.1965 1.4357,2.4638 1.2957,3.8055 -0.1381,1.3399 -0.8688,2.565 -2.1903,3.674 -1.3116,1.1007 -2.6363,1.6027 -3.9748,1.512 -1.3371,-0.0927 -2.5069,-0.7345 -3.5061,-1.9253 -1.0134,-1.2076 -1.4505,-2.4772 -1.3133,-3.8067 0.1391,-1.3314 0.856,-2.5381 2.1472,-3.6215 z m 1.4709,1.6418 c -0.9184,0.7707 -1.4366,1.5698 -1.5557,2.3913 -0.1179,0.8232 0.0981,1.5602 0.6469,2.2142 0.5471,0.6522 1.232,0.9924 2.0566,1.0156 0.8211,0.0227 1.7022,-0.3594 2.6433,-1.1489 0.93,-0.7804 1.4524,-1.5667 1.5709,-2.3584 0.1151,-0.7923 -0.1117,-1.5267 -0.6777,-2.2014 -0.5678,-0.6766 -1.2572,-1.0258 -2.0676,-1.0514 -0.8088,-0.0232 -1.681,0.3538 -2.6167,1.139 z m 9.8359,12.7681 1.035,1.9123 c -1.0327,0.6111 -2.0089,0.862 -2.9325,0.7526 -0.9198,-0.1097 -1.7912,-0.5605 -2.6095,-1.3508 -1.0117,-0.9768 -1.5101,-2.1268 -1.4948,-3.4463 0.0173,-1.3212 0.6041,-2.5827 1.7612,-3.7806 1.2254,-1.2693 2.505,-1.9372 3.839,-2.0075 1.332,-0.0686 2.5322,0.411 3.6008,1.4431 0.9315,0.8998 1.4239,1.9066 1.4729,3.0209 0.0346,0.6608 -0.159,1.3796 -0.5746,2.1583 l -1.8762,-1.1086 c 0.2936,-0.4813 0.407,-0.9757 0.3407,-1.4822 -0.0646,-0.5049 -0.3027,-0.9545 -0.7109,-1.3485 -0.5647,-0.5454 -1.2198,-0.7866 -1.9639,-0.7197 -0.7421,0.0655 -1.5519,0.5522 -2.4296,1.461 -0.9309,0.964 -1.4218,1.817 -1.468,2.5611 -0.0499,0.7443 0.2038,1.3838 0.7574,1.9187 0.4102,0.396 0.8867,0.6058 1.4332,0.6293 0.5451,0.0253 1.152,-0.1805 1.8198,-0.6131 z m 0.2827,5.2617 6.9528,-7.9983 1.6143,1.4035 -6.9528,7.9985 -1.6143,-1.4037 z m 3.1512,2.6798 6.6697,-8.236 6.1055,4.9442 -1.129,1.3943 -4.4431,-3.598 -1.4782,1.8255 4.134,3.3477 -1.1225,1.3865 -4.1343,-3.3477 -1.8153,2.2416 4.6003,3.725 -1.1242,1.3884 -6.2629,-5.0715 z m 9.8677,7.2769 4.7948,-7.3837 -2.6365,-1.7121 0.9771,-1.5047 7.0628,4.5868 -0.9771,1.5046 -2.6303,-1.7082 -4.7948,7.3834 -1.796,-1.1661 z m 8.2145,4.8115 2.0946,-3.9387 -0.546,-7.2406 2.2156,1.1778 0.2344,4.873 4.125,-2.5548 2.1764,1.1571 -6.3278,3.6025 -2.0874,3.926 -1.8848,-1.0023 z m 9.845,4.5187 3.97,-9.8263 6.7379,2.7224 -0.6721,1.6634 -4.752,-1.9199 -0.9391,2.3244 4.1023,1.6574 -0.6721,1.6631 -4.102,-1.6574 -1.6869,4.1754 -1.986,-0.8025 z m 9.5018,-2.0047 c 0.2979,-1.0386 0.7018,-1.8649 1.2143,-2.4803 0.3807,-0.4504 0.8303,-0.8271 1.3493,-1.1248 0.5185,-0.2956 1.0452,-0.4756 1.5789,-0.5383 0.7135,-0.0881 1.482,-0.0113 2.3122,0.2268 1.5013,0.4303 2.5682,1.2393 3.2021,2.4301 0.6349,1.188 0.7143,2.6125 0.2386,4.2704 -0.4719,1.6461 -1.2889,2.8032 -2.4497,3.4765 -1.1602,0.6709 -2.4888,0.7928 -3.9829,0.3645 -1.5157,-0.4346 -2.5881,-1.2424 -3.2176,-2.4216 -0.6293,-1.1815 -0.7098,-2.583 -0.2452,-4.2033 z m 2.1376,0.5389 c -0.3305,1.1526 -0.3132,2.1047 0.0473,2.8525 0.3629,0.7484 0.9539,1.2385 1.7745,1.474 0.8184,0.2344 1.5764,0.1335 2.2731,-0.3081 0.6934,-0.4405 1.2101,-1.2498 1.5489,-2.4307 0.3344,-1.1673 0.3282,-2.1113 -0.0165,-2.8338 -0.3475,-0.7209 -0.9462,-1.203 -1.7929,-1.446 -0.849,-0.2435 -1.6157,-0.1474 -2.302,0.2846 -0.6837,0.4329 -1.1957,1.2334 -1.5324,2.4075 z m 8.0838,7.4821 2.0223,-10.4032 4.4229,0.8597 c 1.1117,0.216 1.8997,0.4675 2.3675,0.7518 0.4674,0.2843 0.8073,0.6951 1.0173,1.2311 0.2095,0.5383 0.254,1.1126 0.1344,1.7277 -0.1517,0.7801 -0.5074,1.3819 -1.0642,1.8017 -0.5561,0.4173 -1.3067,0.6055 -2.2453,0.559 0.4037,0.3546 0.7226,0.7186 0.9564,1.093 0.2336,0.3751 0.5219,1.014 0.866,1.9205 l 0.8771,2.2771 -2.5118,-0.4884 -1.0786,-2.56 c -0.3827,-0.9139 -0.652,-1.4939 -0.8099,-1.7436 -0.1576,-0.2492 -0.3404,-0.4328 -0.5479,-0.5564 -0.2078,-0.1205 -0.5513,-0.2277 -1.0358,-0.3218 l -0.4238,-0.0822 -0.8441,4.3427 -2.1025,-0.4087 z m 3.2695,-5.5959 1.5528,0.3019 c 1.0075,0.1958 1.6453,0.2769 1.9137,0.2412 0.2659,-0.0363 0.491,-0.1457 0.6744,-0.3263 0.1805,-0.1808 0.3038,-0.426 0.3648,-0.7387 0.0683,-0.3512 0.0283,-0.6505 -0.1162,-0.9022 -0.1446,-0.2518 -0.3824,-0.4386 -0.713,-0.5633 -0.1649,-0.0547 -0.6738,-0.1661 -1.5264,-0.3319 l -1.6373,-0.3184 -0.5128,2.6377 z m 13.7838,7.7306 0.3069,-8.7984 -3.1416,-0.1097 0.0627,-1.7929 8.4163,0.2939 -0.0626,1.7929 -3.1343,-0.1094 -0.3073,8.7985 -2.1401,-0.0749 z m 6.6611,0.1378 -0.3699,-10.5914 7.8516,-0.2741 0.0627,1.7929 -5.7138,0.1996 0.0819,2.3476 5.3167,-0.1856 0.0623,1.7827 -5.3166,0.1856 0.1006,2.8829 5.9156,-0.2067 0.0624,1.7853 -8.0535,0.2812 z m 16.037,-5.3586 2.1438,0.3617 c -0.1542,1.1902 -0.5573,2.1138 -1.2121,2.7742 -0.6528,0.6574 -1.5446,1.0664 -2.6708,1.2249 -1.3929,0.1959 -2.6059,-0.1196 -3.6362,-0.9439 -1.0304,-0.8272 -1.6631,-2.0662 -1.895,-3.7154 -0.2455,-1.7473 0.0159,-3.1669 0.7818,-4.2611 0.7659,-1.0919 1.8828,-1.7424 3.3539,-1.9491 1.2827,-0.1802 2.3792,0.0519 3.2874,0.6991 0.542,0.3798 0.9893,0.9748 1.347,1.7818 l -2.0288,0.7957 c -0.1987,-0.5278 -0.5181,-0.9213 -0.9581,-1.1809 -0.4376,-0.2599 -0.9385,-0.3489 -1.5006,-0.2701 -0.7773,0.1094 -1.3709,0.477 -1.7759,1.1043 -0.4054,0.6254 -0.5205,1.5631 -0.3447,2.8143 0.1865,1.3269 0.5564,2.2391 1.1146,2.7337 0.5556,0.4975 1.2157,0.6914 1.9783,0.5842 0.5643,-0.0793 1.023,-0.3257 1.3782,-0.7421 0.3554,-0.4136 0.5669,-1.0188 0.6372,-1.8113 z m 4.3588,3.2278 -2.3839,-10.3261 2.0869,-0.4819 0.9379,4.0632 4.0848,-0.9431 -0.938,-4.0631 2.0846,-0.4814 2.3839,10.3264 -2.0846,0.4813 -1.0423,-4.515 -4.0847,0.9431 1.0423,4.515 -2.0869,0.4816 z m 10.3785,-2.6303 -3.4503,-10.0205 1.9689,-0.678 6.4055,5.279 -2.304,-6.6912 1.8805,-0.6475 3.4503,10.0205 -2.0321,0.6996 -6.2884,-5.1443 2.2501,6.535 -1.8805,0.6474 z m 9.9989,-3.5748 -3.9699,-9.8263 1.9834,-0.8013 3.9702,9.8263 -1.9837,0.8013 z m 7.9889,-8.2312 2.1382,-0.3934 c 0.2622,1.1712 0.1993,2.177 -0.1902,3.0214 -0.3886,0.841 -1.0865,1.5307 -2.0908,2.0648 -1.2419,0.6601 -2.4894,0.7786 -3.7398,0.3566 -1.2512,-0.425 -2.2694,-1.3726 -3.0515,-2.8435 -0.8283,-1.5576 -1.0681,-2.9812 -0.7228,-4.2712 0.3464,-1.2881 1.1735,-2.2813 2.4851,-2.9787 1.1438,-0.608 2.2536,-0.765 3.3282,-0.4674 0.6392,0.1715 1.2631,0.5774 1.8754,1.2135 l -1.6342,1.4417 c -0.3674,-0.428 -0.8022,-0.6885 -1.3045,-0.7821 -0.5,-0.0944 -1.0012,-0.007 -1.5024,0.2597 -0.693,0.3682 -1.125,0.9167 -1.2911,1.6452 -0.1673,0.726 0.0456,1.6467 0.6386,2.7621 0.6293,1.1832 1.2886,1.9137 1.9823,2.1878 0.6925,0.2775 1.379,0.2335 2.0588,-0.1279 0.5031,-0.2676 0.8501,-0.6556 1.0414,-1.1684 0.1925,-0.5105 0.1843,-1.1514 -0.0207,-1.9202 z m 13.3163,-3.5478 -1.9533,1.2685 -2.0877,-1.516 -3.553,2.3077 0.5789,2.4956 -1.9038,1.2362 -2.3099,-11.1365 1.8975,-1.2322 9.3313,6.5767 z m -5.5879,-1.3697 -3.367,-2.503 0.9417,4.0779 2.4253,-1.5749 z m 6.6141,0.8214 -6.6152,-8.1688 1.6625,-1.3462 5.491,6.7805 4.1343,-3.3478 1.1242,1.3882 -5.7968,4.6941 z m 9.9706,-8.1771 -7.3619,-7.6235 5.6514,-5.4578 1.2464,1.2906 -4.1125,3.9716 1.6317,1.6898 3.8267,-3.6955 1.239,1.2832 -3.8264,3.6955 2.0035,2.075 4.2582,-4.112 1.2407,1.285 -5.7968,5.5981 z m -0.9958,-13.6939 2.514,-2.9959 c 0.5661,-0.6746 1.0485,-1.146 1.4508,-1.4142 0.5394,-0.3589 1.1316,-0.5579 1.7745,-0.5947 0.6429,-0.0405 1.2988,0.0683 1.9658,0.3254 0.6673,0.2602 1.3807,0.7075 2.1424,1.3468 0.6673,0.5598 1.1741,1.1267 1.5183,1.699 0.42,0.6974 0.6556,1.3879 0.7029,2.0719 0.0403,0.5167 -0.0663,1.0811 -0.3174,1.6951 -0.1874,0.4578 -0.5369,0.9893 -1.046,1.5959 l -2.5869,3.083 -8.1184,-6.8123 z m 2.7496,-0.4855 5.3756,4.5107 1.0261,-1.2231 c 0.3838,-0.4572 0.637,-0.8087 0.7552,-1.0573 0.1556,-0.3201 0.2299,-0.6347 0.2185,-0.944 -0.0113,-0.3089 -0.155,-0.6712 -0.4243,-1.0871 -0.2707,-0.4141 -0.7206,-0.888 -1.3482,-1.4147 -0.6273,-0.5264 -1.1548,-0.8725 -1.5834,-1.0452 -0.43,-0.1709 -0.8229,-0.2364 -1.1764,-0.195 -0.3572,0.042 -0.6965,0.1888 -1.0193,0.4397 -0.2452,0.1842 -0.6455,0.6117 -1.207,1.2807 l -0.6168,0.7353 z m 3.4514,-6.9744 1.2271,-1.7524 4.7016,3.2922 c 0.7461,0.5221 1.2464,0.8399 1.4964,0.9513 0.4079,0.1743 0.8192,0.1942 1.2302,0.0632 0.4145,-0.1315 0.7918,-0.4425 1.1342,-0.9317 0.3481,-0.4972 0.5102,-0.944 0.483,-1.3394 -0.0252,-0.3943 -0.1695,-0.7214 -0.4292,-0.9788 -0.2602,-0.2602 -0.7347,-0.6287 -1.4215,-1.1098 l -4.8028,-3.3627 1.2269,-1.7524 4.56,3.1929 c 1.0429,0.7305 1.7462,1.2921 2.1102,1.6884 0.3639,0.3962 0.604,0.8237 0.7231,1.2863 0.1165,0.4612 0.1139,0.9686 -0.007,1.516 -0.123,0.5496 -0.4266,1.1682 -0.9079,1.8556 -0.5803,0.8288 -1.1152,1.3906 -1.6073,1.6846 -0.4921,0.2942 -0.9768,0.4578 -1.4564,0.4926 -0.4791,0.0349 -0.9153,-0.0263 -1.3059,-0.1825 -0.578,-0.2327 -1.351,-0.69 -2.3233,-1.3708 l -4.631,-3.2426 z m 14.7237,-10.5474 1.5792,-1.4945 c 0.8578,0.8394 1.3527,1.7173 1.4859,2.6377 0.1321,0.917 -0.0776,1.8754 -0.629,2.8703 -0.682,1.2303 -1.6636,2.009 -2.9423,2.3358 -1.2807,0.3251 -2.651,0.085 -4.1077,-0.7226 -1.5429,-0.8554 -2.5194,-1.9184 -2.9325,-3.1886 -0.411,-1.2688 -0.2585,-2.5524 0.4618,-3.8518 0.6279,-1.1327 1.4732,-1.8688 2.5367,-2.2045 0.6296,-0.2043 1.374,-0.2035 2.2337,-0.004 l -0.5853,2.0994 c -0.5411,-0.159 -1.0477,-0.1406 -1.52,0.0544 -0.4708,0.1931 -0.8433,0.5394 -1.1185,1.0358 -0.3804,0.6865 -0.4442,1.3819 -0.1868,2.0832 0.2551,0.6998 0.9351,1.3561 2.0401,1.9686 1.1718,0.6497 2.1229,0.9032 2.8539,0.7552 0.7316,-0.1443 1.2838,-0.555 1.6569,-1.2283 0.2763,-0.4986 0.3557,-1.0131 0.2369,-1.5471 -0.1165,-0.5329 -0.4722,-1.0661 -1.063,-1.5993 z m 9.137,-10.2799 -0.9477,2.1277 -2.5764,-0.1343 -1.7232,3.8704 1.8448,1.7776 -0.9232,2.0738 -8.0025,-8.0818 0.9201,-2.0671 11.4081,0.4337 z m -5.4326,1.8944 -4.1871,-0.265 3.011,2.9069 1.1761,-2.6419 z m 6.1443,-4.2063 -8.3729,-2.7207 -0.9715,2.99 -1.7061,-0.5545 2.6022,-8.0093 1.7064,0.5545 -0.9692,2.9826 8.373,2.7207 -0.6619,2.0367 z m 2.0175,-6.2714 -10.2368,-2.7431 0.5536,-2.0664 10.2368,2.7431 -0.5536,2.0664 z m -4.0644,-4.8251 c -1.0527,-0.2432 -1.8992,-0.6032 -2.5404,-1.0828 -0.47,-0.3566 -0.8696,-0.7858 -1.1939,-1.2887 -0.3223,-0.5023 -0.5298,-1.0187 -0.6202,-1.5485 -0.1253,-0.7079 -0.0891,-1.4794 0.1054,-2.3208 0.3512,-1.5219 1.1032,-2.6297 2.2592,-3.325 1.1532,-0.6962 2.5716,-0.8498 4.2523,-0.4621 1.6684,0.3853 2.8666,1.141 3.5997,2.2646 0.7308,1.1234 0.9221,2.4441 0.5723,3.9586 -0.3546,1.5364 -1.1052,2.6493 -2.2499,3.3401 -1.1469,0.6899 -2.5421,0.8439 -4.1845,0.4646 z m 0.4261,-2.1631 c 1.1684,0.2698 2.1183,0.2029 2.8463,-0.1965 0.7282,-0.4014 1.1868,-1.0173 1.379,-1.849 0.1913,-0.8297 0.051,-1.5812 -0.4266,-2.2538 -0.4762,-0.6693 -1.3116,-1.1432 -2.5087,-1.4196 -1.1829,-0.273 -2.1251,-0.2172 -2.8287,0.1647 -0.7018,0.3849 -1.152,1.008 -1.3501,1.866 -0.1987,0.8609 -0.0626,1.6214 0.4045,2.2842 0.4683,0.6599 1.2943,1.1293 2.4843,1.404 z m 7.1473,-8.3736 -10.5188,-1.2914 0.2537,-2.0671 7.5526,-3.4429 -7.024,-0.8626 0.2424,-1.9738 10.5188,1.2915 -0.2619,2.1331 -7.3803,3.397 6.8598,0.8422 -0.2423,1.974 z" />
</svg>
